<?xml version="1.0" encoding="UTF-8"?>
<svg id="Layer_2" data-name="Layer 2" xmlns="http://www.w3.org/2000/svg" viewBox="0 0 370.51 321.26">
  <defs>
    <style>
      .cls-1 {
        fill: #e8d0ba;
      }

      .cls-2 {
        fill: #ef7d0a;
      }
    </style>
  </defs>
  <g id="Layer_1-2" data-name="Layer 1">
    <g>
      <g data-original="#f9e8d4">
        <path class="cls-1" d="M71.06,313.76c-12.01,0-23.36-5.74-30.35-15.35-5.98-8.23-8.37-18.5-6.67-28.43-9.65-2.93-17.76-9.67-22.43-18.71-8.45-16.34-3.56-36.77,11.38-47.52,6.45-4.64,14.03-7.09,21.91-7.09s16.31,2.74,22.83,7.73l43.61-26.92,40.04,64.87-43.6,26.91c3.1,16.16-4.78,32.58-19.48,40.28-5.28,2.76-11.23,4.22-17.23,4.22Z"/>
        <path d="M108.89,187.8l32.16,52.1-38.34,23.66c-2.07,1.27-3.07,3.72-2.53,6.09,2.92,12.82-2.86,26.68-15.38,33.24-4.35,2.28-9.07,3.37-13.75,3.37-9.34,0-18.52-4.34-24.28-12.26-5.35-7.35-6.85-16.16-5.05-24.22.65-2.9-1.18-5.86-4.06-6.58-8.02-2-15.21-7.3-19.39-15.37-6.75-13.06-2.83-29.4,9.1-37.98,5.36-3.86,11.48-5.68,17.52-5.68,6.89,0,13.67,2.38,19.08,6.83,1.05.86,2.34,1.31,3.63,1.31,1.02,0,2.04-.27,2.95-.84l38.34-23.66M113.78,167.16l-12.76,7.88-33.11,20.44c-6.92-4.1-14.88-6.31-23-6.31-9.46,0-18.55,2.94-26.29,8.51-17.93,12.9-23.8,37.43-13.66,57.05,4.63,8.96,12.09,16.04,21.07,20.21-.3,9.9,2.68,19.74,8.62,27.9,8.4,11.54,22.01,18.44,36.42,18.44,7.2,0,14.36-1.76,20.7-5.08,16.05-8.4,25.32-25.46,24.06-43.08l33.11-20.43,12.76-7.88-7.88-12.76-32.16-52.1-7.88-12.76h0Z"/>
      </g>
      <g data-original="#ff9017">
        <path class="cls-2" d="M227.93,264.28c-12.2,0-22.82-7.82-26.62-19.09-2.12-.72-4.15-1.69-6.04-2.89-5.2,7.01-13.51,11.35-22.57,11.35-5.56,0-10.89-1.61-15.44-4.62-4.23,2.44-9.05,3.74-13.99,3.74-11.73,0-22.04-7.19-26.2-17.85-10.84-4.09-18.12-14.44-18.12-26.27,0-3.14.54-6.29,1.58-9.27-1.05-2.98-1.58-6.09-1.58-9.28,0-9.03,4.29-17.37,11.43-22.62v-.03c0-8.06,3.42-15.57,9.22-20.82-2.9-4.94-4.46-10.59-4.46-16.43,0-16.88,12.93-30.79,29.41-32.36,2.08-4.22,5.21-7.87,9.04-10.58-1.33-3.3-2.02-6.84-2.02-10.48,0-8.48,3.77-16.38,10.24-21.69,1.61-13.99,13.51-24.88,27.91-24.88.49,0,.98.01,1.47.04,5.24-7.05,13.54-11.3,22.53-11.3,3.7,0,7.35.74,10.73,2.13,4.99-8.26,14.06-13.59,24.07-13.59,11.38,0,21.34,6.75,25.72,16.76,1.99-.38,4.01-.57,6.06-.57,14.94,0,27.73,10.11,31.44,24.16,7.7,2.03,14.36,6.81,18.76,13.48,17.84.09,32.33,14.64,32.33,32.5,0,7.82-2.82,15.33-7.86,21.19,1.01,2.94,1.54,6.04,1.53,9.16,0,3.72-.72,7.37-2.14,10.76,5.49,5.25,8.64,12.49,8.64,20.27,0,10.14-5.58,19.5-14.24,24.43-.39,2.95-1.36,5.81-2.83,8.39,4.54,7.91,3.96,17.92-1.87,26.28-.46.66-1,1.25-1.61,1.76-4.76,3.99-10.15,6.2-15.63,6.41-4.7,7.08-12.46,11.72-21.01,12.46-4.54,9.77-14.43,16.26-25.48,16.26-5.68,0-11.24-1.75-15.89-4.93-3.76,2.6-8.08,4.22-12.65,4.75-5.06,8.14-14.06,13.25-23.86,13.25Z"/>
        <path d="M248.53,15c10.17,0,18.62,7.38,20.29,17.07.02.11.05.21.09.32.22.52.73.84,1.27.84.18,0,.36-.04.54-.11,3.04-1.27,6.3-1.92,9.59-1.92h.02c12.82,0,23.38,9.65,24.82,22.08.08.62.56,1.1,1.18,1.17,8.61,1.01,15.87,6.38,19.53,13.84.22.46.69.75,1.19.75.06,0,.11,0,.17-.01,1.02-.13,2.06-.2,3.11-.2,13.81,0,25,11.19,25,25,0,7.51-3.31,14.24-8.56,18.82-.47.42-.59,1.11-.29,1.66,1.65,3.02,2.51,6.41,2.51,9.85,0,4.15-1.25,8.21-3.6,11.63-.01.02-.03.04-.04.06-.39.64-.2,1.48.44,1.87,5.82,3.64,9.7,10.1,9.7,17.48h0c0,8.77-5.49,16.26-13.21,19.23-.55.21-.88.76-.85,1.35.23,4.17-1.23,8.25-4.06,11.33-.49.52-.49,1.33,0,1.86,4.65,5.07,5.98,13.23.53,21.05-.07.11-.17.21-.27.29-4.01,3.36-8.02,4.69-11.72,4.69-.81,0-1.61-.06-2.38-.19-.07-.01-.14-.02-.22-.02-.52,0-1,.3-1.22.78-3.26,7.07-10.41,11.98-18.71,11.98-.6,0-1.19-.03-1.77-.08-.04,0-.07,0-.11,0-.61,0-1.14.41-1.3,1-2.36,8.78-10.37,15.24-19.89,15.24-5.86,0-11.16-2.45-14.91-6.38-.02-.02-.04-.04-.05-.05-.26-.25-.6-.37-.94-.37-.36,0-.73.14-.99.43-3.75,3.93-9.04,6.38-14.91,6.38-.16,0-.32,0-.49,0-.02,0-.03,0-.05,0-.52,0-1,.31-1.22.79-3.2,7.23-10.43,12.28-18.84,12.28-10.1,0-18.5-7.27-20.25-16.86-.1-.55-.54-.98-1.09-1.08-4.82-.88-9.05-3.44-12.07-7.05-.27-.33-.65-.48-1.03-.48-.55,0-1.09.32-1.29.91-2.77,8.11-10.45,13.94-19.5,13.94-5.54,0-10.57-2.19-14.27-5.75-.26-.25-.6-.38-.94-.38-.31,0-.62.11-.88.32-3.72,3.18-8.45,4.93-13.34,4.93h-.03c-9.64,0-17.73-6.62-19.98-15.57-.13-.51-.53-.91-1.04-1.03-9.05-2.17-15.77-10.31-15.77-20.03,0-3,.65-5.97,1.92-8.69.17-.37.17-.8,0-1.17-1.23-2.64-1.92-5.58-1.92-8.69,0-7.89,4.44-14.75,10.96-18.2.5-.27.78-.84.69-1.4-.15-.99-.23-2.01-.23-3.04,0-7.91,4.46-14.78,11-18.23.79-.42.94-1.48.34-2.14-4.08-4.45-6.57-10.37-6.57-16.88,0-13.81,11.19-25,25-25,.35,0,.69,0,1.04.02.02,0,.04,0,.06,0,.59,0,1.13-.38,1.3-.95,1.84-6.12,6.46-11.03,12.38-13.29.82-.31,1.12-1.34.6-2.05-2.49-3.4-3.96-7.6-3.96-12.14,0-7.25,3.75-13.62,9.41-17.3.4-.26.64-.7.64-1.17h0c0-11.38,9.22-20.61,20.6-20.61,1.44,0,2.88.15,4.29.45.09.02.19.03.28.03.49,0,.94-.27,1.18-.71,3.44-6.56,10.32-11.04,18.24-11.04h.03c4.62,0,9.1,1.56,12.73,4.43.26.2.56.3.85.3.58,0,1.14-.37,1.31-1,2.38-8.75,10.37-15.18,19.88-15.18M248.53,0c-10.58,0-20.33,4.7-26.94,12.34-2.56-.58-5.19-.88-7.83-.88-10.07,0-19.44,4.19-26.07,11.32-16.31.93-29.72,12.89-32.86,28.52-6.82,6.63-10.75,15.76-10.75,25.49,0,2.7.3,5.36.89,7.94-1.93,1.88-3.64,3.97-5.11,6.23-18.34,3.64-32.21,19.85-32.21,39.24,0,5.23,1.02,10.35,2.95,15.1-4.18,5.26-6.83,11.65-7.53,18.49-7.31,6.65-11.62,16.14-11.62,26.31,0,3.18.41,6.28,1.23,9.3-.81,3.03-1.23,6.15-1.23,9.27,0,13.87,7.91,26.13,19.96,31.99,5.93,11.85,18.12,19.63,31.83,19.63,4.76,0,9.44-.95,13.76-2.77,4.84,2.38,10.18,3.64,15.7,3.64,8.85,0,17.13-3.27,23.48-8.84,5.94,11.69,18.06,19.46,31.74,19.46,11.2,0,21.57-5.26,28.22-13.9,2.87-.63,5.66-1.62,8.29-2.93,4.9,2.45,10.35,3.77,15.9,3.77,12.55,0,23.93-6.61,30.29-16.9,7.93-1.66,15.09-5.99,20.23-12.21,5.82-.96,11.42-3.6,16.42-7.79,1.09-.91,2.08-1.99,2.92-3.18,6.71-9.62,8.01-20.97,4.07-30.65.49-1.22.9-2.48,1.23-3.76,9.22-6.58,15.01-17.4,15.01-29.02,0-8.18-2.74-15.89-7.64-22.07.76-2.91,1.14-5.93,1.14-8.99,0-2.53-.27-5.05-.81-7.52,4.6-6.64,7.14-14.57,7.14-22.8,0-20.67-15.75-37.72-35.88-39.79-4.43-5.47-10.2-9.65-16.76-12.15-5.79-15.16-20.46-25.7-37.37-25.7-.64,0-1.27.01-1.9.04-6.38-9.88-17.47-16.24-29.9-16.24h0Z"/>
      </g>
    </g>
    <circle cx="195.44" cy="123.3" r="11.01"/>
    <circle cx="288.72" cy="123.3" r="11.01"/>
    <path d="M277.71,155.72c0,17.72-15.04,32.08-33.59,32.08s-33.59-14.36-33.59-32.08,15.04-11.02,33.59-11.02,33.59-6.7,33.59,11.02Z"/>
  </g>
</svg>