<?xml version="1.0" encoding="UTF-8"?>
<svg id="Layer_2" data-name="Layer 2" xmlns="http://www.w3.org/2000/svg" viewBox="0 0 1215.84 317.6">
  <defs>
    <style>
      .cls-1 {
        fill: #e8d0ba;
      }

      .cls-2 {
        fill: none;
        stroke: #000;
        stroke-width: 30px;
      }

      .cls-2, .cls-3, .cls-4 {
        font-family: Viga-Regular, Viga;
        font-size: 183px;
        letter-spacing: -.03em;
      }

      .cls-3 {
        fill: #fdf6e4;
      }

      .cls-5 {
        fill: #ef7d0a;
      }

      .cls-4 {
        fill: #fff;
      }
    </style>
  </defs>
  <g id="Layer_1-2" data-name="Layer 1">
    <g>
      <g>
        <g data-original="#f9e8d4">
          <path class="cls-1" d="M64.04,282.74c-10.83,0-21.05-5.17-27.35-13.83-5.39-7.42-7.54-16.67-6.01-25.62-8.7-2.64-16-8.71-20.21-16.86-7.61-14.73-3.2-33.13,10.26-42.82,5.81-4.18,12.64-6.39,19.74-6.39s14.7,2.47,20.58,6.97l39.29-24.25,36.08,58.46-39.29,24.25c2.79,14.56-4.31,29.36-17.56,36.29-4.75,2.49-10.12,3.8-15.52,3.8Z"/>
          <path d="M98.13,169.24l28.98,46.95-34.55,21.32c-1.86,1.15-2.76,3.35-2.28,5.49,2.63,11.55-2.58,24.05-13.86,29.95-3.92,2.05-8.17,3.03-12.39,3.03-8.42,0-16.69-3.91-21.88-11.05-4.82-6.62-6.18-14.56-4.55-21.83.58-2.61-1.06-5.28-3.66-5.93-7.22-1.8-13.71-6.58-17.47-13.85-6.08-11.77-2.55-26.49,8.2-34.23,4.83-3.48,10.35-5.12,15.79-5.12,6.21,0,12.32,2.14,17.2,6.16.95.78,2.11,1.18,3.27,1.18.92,0,1.84-.25,2.66-.75l34.55-21.32M102.53,150.64l-11.5,7.1-29.84,18.42c-6.23-3.7-13.41-5.69-20.73-5.69-8.53,0-16.72,2.65-23.69,7.67-16.16,11.63-21.45,33.73-12.31,51.41,4.18,8.08,10.89,14.45,18.99,18.21-.27,8.92,2.42,17.79,7.77,25.14,7.57,10.4,19.84,16.61,32.82,16.61,6.49,0,12.94-1.58,18.66-4.57,14.46-7.57,22.81-22.95,21.68-38.82l29.83-18.41,11.5-7.1-7.1-11.5-28.98-46.95-7.1-11.5h0Z"/>
        </g>
        <g data-original="#ff9017">
          <path class="cls-5" d="M205.4,238.15c-10.99,0-20.56-7.05-23.99-17.2-1.91-.65-3.74-1.52-5.44-2.61-4.69,6.32-12.17,10.23-20.34,10.23-5.01,0-9.81-1.46-13.91-4.16-3.81,2.19-8.16,3.37-12.61,3.37-10.57,0-19.86-6.47-23.61-16.09-9.76-3.69-16.33-13.01-16.33-23.67,0-2.83.48-5.67,1.42-8.35-.94-2.68-1.42-5.48-1.42-8.36,0-8.13,3.87-15.65,10.3-20.38v-.02c0-7.26,3.08-14.03,8.31-18.76-2.62-4.46-4.02-9.55-4.02-14.8,0-15.21,11.65-27.75,26.5-29.16,1.88-3.8,4.7-7.09,8.15-9.53-1.2-2.97-1.82-6.16-1.82-9.44,0-7.64,3.4-14.76,9.22-19.54,1.45-12.6,12.17-22.42,25.15-22.42.44,0,.88.01,1.32.04,4.72-6.35,12.2-10.19,20.31-10.19,3.33,0,6.62.67,9.67,1.92,4.5-7.45,12.67-12.25,21.69-12.25,10.25,0,19.23,6.08,23.18,15.11,1.79-.34,3.62-.51,5.46-.51,13.46,0,24.98,9.11,28.32,21.77,6.94,1.83,12.94,6.13,16.91,12.15,16.08.08,29.13,13.19,29.13,29.29,0,7.05-2.54,13.81-7.09,19.09.91,2.65,1.38,5.45,1.38,8.26,0,3.35-.65,6.64-1.93,9.69,4.95,4.73,7.78,11.26,7.78,18.27,0,9.13-5.03,17.57-12.83,22.02-.36,2.66-1.23,5.23-2.55,7.56,4.09,7.13,3.57,16.15-1.68,23.68-.44.62-.93,1.15-1.48,1.6-4.27,3.58-9.13,5.57-14.07,5.76-4.23,6.38-11.23,10.56-18.93,11.23-4.1,8.81-13.01,14.65-22.96,14.65-5.22,0-10.17-1.55-14.35-4.44-3.38,2.31-7.29,3.79-11.37,4.27-4.56,7.34-12.67,11.95-21.5,11.95Z"/>
          <path d="M223.96,13.52c9.17,0,16.78,6.65,18.29,15.39.02.1.04.19.08.28.2.47.66.76,1.14.76.16,0,.33-.03.48-.1,2.74-1.14,5.68-1.73,8.65-1.73h.02c11.55,0,21.06,8.69,22.37,19.89.07.56.51.99,1.06,1.06,7.75.91,14.3,5.75,17.6,12.48.2.42.62.67,1.07.67.05,0,.1,0,.15,0,.92-.12,1.85-.18,2.8-.18,12.44,0,22.53,10.09,22.53,22.53,0,6.77-2.99,12.83-7.71,16.96-.42.38-.53,1-.26,1.5,1.49,2.72,2.27,5.78,2.26,8.88,0,3.74-1.13,7.4-3.25,10.48-.01.02-.02.04-.03.05-.36.58-.18,1.33.4,1.69,5.25,3.28,8.74,9.11,8.74,15.75,0,7.9-4.94,14.65-11.9,17.33-.49.19-.79.69-.76,1.22.21,3.76-1.11,7.44-3.66,10.21-.44.47-.44,1.2,0,1.68,4.19,4.57,5.39,11.93.47,18.97-.07.1-.15.19-.24.26-3.61,3.02-7.23,4.23-10.56,4.23-.73,0-1.45-.06-2.15-.17-.07-.01-.13-.02-.2-.02-.47,0-.9.27-1.1.7-2.94,6.37-9.38,10.79-16.86,10.79-.54,0-1.07-.02-1.59-.07-.03,0-.07,0-.1,0-.55,0-1.03.37-1.17.9-2.13,7.91-9.34,13.73-17.92,13.73-5.28,0-10.05-2.21-13.43-5.75-.02-.02-.03-.03-.05-.05-.24-.23-.54-.34-.85-.34-.33,0-.65.13-.9.39-3.38,3.54-8.15,5.75-13.43,5.75-.15,0-.29,0-.44,0-.01,0-.03,0-.04,0-.47,0-.9.28-1.1.71-2.88,6.52-9.4,11.07-16.98,11.07-9.1,0-16.67-6.55-18.25-15.19-.09-.5-.48-.88-.98-.98-4.34-.8-8.15-3.1-10.87-6.36-.25-.29-.59-.43-.93-.43-.49,0-.98.29-1.16.82-2.49,7.31-9.42,12.57-17.57,12.57-4.99,0-9.53-1.97-12.86-5.18-.24-.23-.54-.34-.85-.34-.28,0-.56.1-.79.29-3.35,2.87-7.61,4.45-12.02,4.45h-.02c-8.69,0-15.98-5.97-18-14.03-.11-.46-.48-.82-.94-.93-8.15-1.96-14.21-9.29-14.21-18.05,0-2.71.59-5.38,1.73-7.83.16-.33.16-.72,0-1.06-1.11-2.38-1.73-5.03-1.73-7.83,0-7.11,4-13.29,9.88-16.4.45-.24.7-.75.63-1.26-.13-.89-.2-1.81-.2-2.74,0-7.13,4.02-13.32,9.91-16.43.71-.38.85-1.33.3-1.93-3.68-4.01-5.92-9.35-5.92-15.22,0-12.44,10.09-22.53,22.53-22.53.31,0,.62,0,.94.02.02,0,.04,0,.06,0,.53,0,1.02-.34,1.17-.86,1.66-5.51,5.82-9.94,11.16-11.98.74-.28,1.01-1.21.55-1.85-2.24-3.07-3.57-6.85-3.57-10.94,0-6.53,3.38-12.28,8.48-15.59.36-.23.58-.63.57-1.05h0c0-10.26,8.31-18.57,18.56-18.57,1.3,0,2.6.14,3.87.41.08.02.17.03.25.03.44,0,.85-.24,1.06-.64,3.1-5.91,9.3-9.95,16.44-9.95h.03c4.16,0,8.21,1.41,11.47,3.99.23.18.5.27.77.27.53,0,1.03-.34,1.18-.9,2.14-7.88,9.35-13.68,17.91-13.68M223.96,0c-9.53,0-18.32,4.24-24.28,11.12-2.31-.52-4.67-.79-7.05-.79-9.07,0-17.52,3.77-23.5,10.2-14.7.84-26.78,11.62-29.61,25.7-6.15,5.98-9.68,14.2-9.68,22.97,0,2.44.27,4.83.8,7.16-1.74,1.69-3.28,3.57-4.6,5.61-16.53,3.27-29.03,17.89-29.03,35.36,0,4.72.92,9.33,2.66,13.6-3.77,4.73-6.15,10.49-6.79,16.66-6.59,5.99-10.47,14.55-10.47,23.71,0,2.86.37,5.66,1.11,8.38-.73,2.73-1.11,5.55-1.11,8.35,0,12.5,7.13,23.55,17.99,28.82,5.34,10.68,16.33,17.69,28.68,17.69,4.29,0,8.51-.86,12.4-2.49,4.36,2.15,9.17,3.28,14.15,3.28,7.98,0,15.44-2.95,21.16-7.96,5.35,10.54,16.27,17.54,28.6,17.54,10.09,0,19.44-4.74,25.43-12.52,2.59-.57,5.1-1.46,7.46-2.64,4.42,2.2,9.33,3.39,14.33,3.39,11.31,0,21.56-5.96,27.3-15.23,7.15-1.49,13.59-5.4,18.23-11,5.25-.86,10.29-3.24,14.8-7.02.99-.83,1.87-1.79,2.62-2.85l.02-.02.02-.02c6.03-8.65,7.2-18.87,3.64-27.59.44-1.1.81-2.24,1.11-3.39,8.31-5.93,13.52-15.68,13.52-26.15,0-7.37-2.47-14.32-6.88-19.88.68-2.62,1.03-5.34,1.03-8.1,0-2.28-.24-4.55-.73-6.78,4.15-5.98,6.43-13.13,6.43-20.54,0-18.62-14.19-33.99-32.33-35.86-3.99-4.93-9.19-8.7-15.11-10.95-5.22-13.66-18.44-23.16-33.67-23.16-.57,0-1.14.01-1.71.04-5.75-8.91-15.74-14.63-26.95-14.63h0Z"/>
        </g>
      </g>
      <circle cx="176.12" cy="111.11" r="9.92"/>
      <circle cx="260.18" cy="111.11" r="9.92"/>
      <path d="M250.26,140.33c0,15.97-13.55,28.91-30.27,28.91s-30.27-12.94-30.27-28.91,13.55-9.93,30.27-9.93,30.27-6.04,30.27,9.93Z"/>
    </g>
    <g>
      <text class="cls-4" transform="translate(344.18 220.84)"><tspan x="0" y="0">Broasted</tspan></text>
      <text class="cls-2" transform="translate(344.18 220.84)"><tspan x="0" y="0">Broasted</tspan></text>
      <text class="cls-3" transform="translate(344.18 220.84)"><tspan x="0" y="0">Broasted</tspan></text>
    </g>
  </g>
</svg>